<svg xmlns="http://www.w3.org/2000/svg" width="1024" height="1024" viewBox="0 0 1024 1024">
<g>
<path d="M 0.00 0.00 L 1024.00 0.00 L 1024.00 1024.00 L 0.00 1024.00 ZM 505.00 423.82 L 505.00 555.00 L 527.78 555.00 C560.00,555.00 571.76,553.26 585.75,546.43 C599.96,539.49 610.60,526.46 615.18,510.38 C617.06,503.78 617.43,500.06 617.42,487.50 C617.41,473.76 617.18,471.84 614.69,464.67 C607.73,444.70 594.56,432.90 572.44,426.84 C565.33,424.89 561.40,424.62 534.75,424.24 ZM 562.31 537.51 C558.48,538.51 551.67,539.00 541.79,539.00 L 527.00 539.00 L 527.00 439.00 L 539.39 439.00 C565.43,439.00 580.67,445.05 588.55,458.50 C592.25,464.81 595.00,476.98 594.98,486.91 C594.94,505.86 591.67,516.24 582.81,525.61 C576.97,531.79 571.02,535.24 562.31,537.51 ZM 404.89 555.51 C414.86,557.40 436.33,556.83 444.00,554.47 C464.67,548.11 475.15,535.87 475.25,518.00 C475.36,498.38 464.52,488.86 432.50,480.48 C400.65,472.15 393.42,466.80 395.28,452.98 C396.02,447.46 399.00,443.83 405.52,440.53 C410.38,438.08 412.66,437.60 421.35,437.23 C428.45,436.93 433.52,437.27 438.24,438.38 C444.75,439.91 457.85,445.78 461.05,448.59 C462.41,449.78 463.07,449.10 466.37,442.99 C468.44,439.15 469.81,435.51 469.43,434.88 C468.11,432.76 452.34,426.05 443.89,424.03 C432.53,421.30 415.21,421.26 404.77,423.93 C383.66,429.33 372.77,440.88 372.71,457.95 C372.64,475.90 383.48,486.52 409.00,493.52 C428.11,498.77 441.01,503.23 445.36,506.11 C458.86,515.06 453.65,534.41 436.33,539.67 C420.88,544.35 398.33,539.84 382.32,528.87 C380.02,527.29 377.77,526.01 377.32,526.03 C376.87,526.05 374.59,529.21 372.25,533.05 L 368.00 540.05 L 374.02 543.94 C381.19,548.57 394.38,553.51 404.89,555.51 ZM 696.50 556.44 C697.60,556.70 704.80,556.74 712.50,556.53 C728.22,556.12 735.58,554.37 747.17,548.32 C757.62,542.86 757.80,542.48 753.39,534.88 C751.36,531.37 749.59,528.35 749.44,528.18 C749.30,528.00 746.46,529.72 743.13,531.99 C723.20,545.59 694.91,544.51 678.23,529.51 C665.36,517.95 659.65,493.41 664.98,472.59 C667.48,462.81 670.82,456.66 677.10,450.28 C687.02,440.21 698.17,436.39 715.15,437.26 C726.68,437.84 733.99,439.98 743.10,445.40 L 748.69 448.73 L 752.37 441.31 L 756.04 433.89 L 746.77 429.55 C733.26,423.23 724.77,421.67 707.03,422.22 C693.96,422.62 691.61,422.98 683.66,425.79 C672.58,429.71 667.62,432.60 660.14,439.53 C653.01,446.13 646.73,456.19 643.18,466.72 C640.80,473.76 640.55,475.94 640.56,489.50 C640.57,503.29 640.79,505.14 643.34,512.50 C647.33,524.00 652.91,532.82 660.72,539.98 C668.29,546.92 680.15,553.17 689.00,554.90 C692.03,555.50 695.40,556.19 696.50,556.44 ZM 288.50 556.40 C293.04,557.51 310.58,556.20 315.29,554.39 C322.03,551.79 328.94,546.27 332.34,540.76 C338.03,531.56 338.26,529.14 338.73,474.25 L 339.16 424.00 L 317.00 424.00 L 317.00 470.82 C317.00,519.73 316.54,526.43 312.70,533.30 C307.32,542.91 293.14,544.43 279.06,536.90 C276.06,535.30 273.32,534.33 272.96,534.74 C272.60,535.16 270.90,538.00 269.19,541.06 L 266.07 546.62 L 271.29 549.74 C275.84,552.47 281.66,554.72 288.50,556.40 Z" fill="rgb(28,31,38)"/>
<path d="M 288.50 556.40 C281.66,554.72 275.84,552.47 271.29,549.74 L 266.07 546.62 L 269.19 541.06 C270.90,538.00 272.60,535.16 272.96,534.74 C273.32,534.33 276.06,535.30 279.06,536.90 C293.14,544.43 307.32,542.91 312.70,533.30 C316.54,526.43 317.00,519.73 317.00,470.82 L 317.00 424.00 L 328.08 424.00 L 339.16 424.00 L 338.73 474.25 C338.26,529.14 338.03,531.56 332.34,540.76 C328.94,546.27 322.03,551.79 315.29,554.39 C310.58,556.20 293.04,557.51 288.50,556.40 ZM 404.89 555.51 C394.38,553.51 381.19,548.57 374.02,543.94 L 368.00 540.05 L 372.25 533.05 C374.59,529.21 376.87,526.05 377.32,526.03 C377.77,526.01 380.02,527.29 382.32,528.87 C398.33,539.84 420.88,544.35 436.33,539.67 C453.65,534.41 458.86,515.06 445.36,506.11 C441.01,503.23 428.11,498.77 409.00,493.52 C383.48,486.52 372.64,475.90 372.71,457.95 C372.77,440.88 383.66,429.33 404.77,423.93 C415.21,421.26 432.53,421.30 443.89,424.03 C452.34,426.05 468.11,432.76 469.43,434.88 C469.81,435.51 468.44,439.15 466.37,442.99 C463.07,449.10 462.41,449.78 461.05,448.59 C457.85,445.78 444.75,439.91 438.24,438.38 C433.52,437.27 428.45,436.93 421.35,437.23 C412.66,437.60 410.38,438.08 405.52,440.53 C399.00,443.83 396.02,447.46 395.28,452.98 C393.42,466.80 400.65,472.15 432.50,480.48 C464.52,488.86 475.36,498.38 475.25,518.00 C475.15,535.87 464.67,548.11 444.00,554.47 C436.33,556.83 414.86,557.40 404.89,555.51 ZM 696.50 556.44 C695.40,556.19 692.03,555.50 689.00,554.90 C680.15,553.17 668.29,546.92 660.72,539.98 C652.91,532.82 647.33,524.00 643.34,512.50 C640.79,505.14 640.57,503.29 640.56,489.50 C640.55,475.94 640.80,473.76 643.18,466.72 C646.73,456.19 653.01,446.13 660.14,439.53 C667.62,432.60 672.58,429.71 683.66,425.79 C691.61,422.98 693.96,422.62 707.03,422.22 C724.77,421.67 733.26,423.23 746.77,429.55 L 756.04 433.89 L 752.37 441.31 L 748.69 448.73 L 743.10 445.40 C733.99,439.98 726.68,437.84 715.15,437.26 C698.17,436.39 687.02,440.21 677.10,450.28 C670.82,456.66 667.48,462.81 664.98,472.59 C659.65,493.41 665.36,517.95 678.23,529.51 C694.91,544.51 723.20,545.59 743.13,531.99 C746.46,529.72 749.30,528.00 749.44,528.18 C749.59,528.35 751.36,531.37 753.39,534.88 C757.80,542.48 757.62,542.86 747.17,548.32 C735.58,554.37 728.22,556.12 712.50,556.53 C704.80,556.74 697.60,556.70 696.50,556.44 ZM 505.00 489.41 L 505.00 423.82 L 534.75 424.24 C561.40,424.62 565.33,424.89 572.44,426.84 C594.56,432.90 607.73,444.70 614.69,464.67 C617.18,471.84 617.41,473.76 617.42,487.50 C617.43,500.06 617.06,503.78 615.18,510.38 C610.60,526.46 599.96,539.49 585.75,546.43 C571.76,553.26 560.00,555.00 527.78,555.00 L 505.00 555.00 L 505.00 489.41 ZM 562.31 537.51 C571.02,535.24 576.97,531.79 582.81,525.61 C591.67,516.24 594.94,505.86 594.98,486.91 C595.00,476.98 592.25,464.81 588.55,458.50 C580.67,445.05 565.43,439.00 539.39,439.00 L 527.00 439.00 L 527.00 489.00 L 527.00 539.00 L 541.79 539.00 C551.67,539.00 558.48,538.51 562.31,537.51 Z" fill="rgb(252,253,253)"/>
</g>
</svg>